<?xml version="1.0" encoding="UTF-8" standalone="no"?>
<!DOCTYPE svg PUBLIC "-//W3C//DTD SVG 1.1//EN" "http://www.w3.org/Graphics/SVG/1.1/DTD/svg11.dtd">
<svg xmlns:xlink="http://www.w3.org/1999/xlink" style="fill-rule:nonzero;clip-rule:evenodd;stroke-linecap:round;stroke-linejoin:round;" xmlns="http://www.w3.org/2000/svg" viewBox="0 0 820 312" xml:space="preserve" version="1.1">
    <defs>
        <linearGradient id="LinearGradient" x1="325.124" gradientUnits="userSpaceOnUse" gradientTransform="matrix(1 0 0 1 -77.7896 96.6155)" y1="111.106" x2="851.856" y2="-53.6236">
            <stop stop-color="#8e8e8e" offset="0" />
            <stop offset="1" stop-color="#aeaeae" />
            <stop offset="1" stop-color="#aeaeae" />
        </linearGradient>
        <linearGradient y2="-53.6236" x1="325.124" gradientUnits="userSpaceOnUse" x2="851.856" y1="111.106" id="LinearGradient_2" gradientTransform="matrix(1 0 0 1 -77.7896 96.6155)">
            <stop offset="0" stop-color="#8e8e8e" />
            <stop offset="1" stop-color="#aeaeae" />
            <stop stop-color="#aeaeae" offset="1" />
        </linearGradient>
        <linearGradient gradientTransform="matrix(1 0 0 1 -77.7896 96.6155)" y1="111.106" gradientUnits="userSpaceOnUse" x2="851.856" id="LinearGradient_3" y2="-53.6236" x1="325.124">
            <stop stop-color="#8e8e8e" offset="0" />
            <stop stop-color="#aeaeae" offset="1" />
            <stop stop-color="#aeaeae" offset="1" />
        </linearGradient>
        <linearGradient x1="325.124" y1="111.106" gradientUnits="userSpaceOnUse" gradientTransform="matrix(1 0 0 1 -77.7896 96.6155)" id="LinearGradient_4" x2="851.856" y2="-53.6236">
            <stop offset="0" stop-color="#8e8e8e" />
            <stop offset="1" stop-color="#aeaeae" />
            <stop offset="1" stop-color="#aeaeae" />
        </linearGradient>
        <linearGradient x2="851.856" gradientUnits="userSpaceOnUse" y2="-53.6236" gradientTransform="matrix(1 0 0 1 -77.7896 96.6155)" x1="325.124" y1="111.106" id="LinearGradient_5">
            <stop offset="0" stop-color="#8e8e8e" />
            <stop offset="1" stop-color="#aeaeae" />
            <stop stop-color="#aeaeae" offset="1" />
        </linearGradient>
        <linearGradient x1="325.124" y1="111.106" id="LinearGradient_6" gradientTransform="matrix(1 0 0 1 -77.7896 96.6155)" y2="-53.6236" x2="851.856" gradientUnits="userSpaceOnUse">
            <stop stop-color="#8e8e8e" offset="0" />
            <stop offset="1" stop-color="#aeaeae" />
            <stop stop-color="#aeaeae" offset="1" />
        </linearGradient>
        <linearGradient x2="851.856" id="LinearGradient_7" gradientTransform="matrix(1 0 0 1 -77.7896 96.6155)" y2="-53.6236" x1="325.124" gradientUnits="userSpaceOnUse" y1="111.106">
            <stop offset="0" stop-color="#8e8e8e" />
            <stop stop-color="#aeaeae" offset="1" />
            <stop stop-color="#aeaeae" offset="1" />
        </linearGradient>
    </defs>
    <g opacity="1">
        <path d="M35.7625+233C32.6592+233+30.0458+231.938+27.9225+229.815C25.7992+227.692+24.7375+225.078+24.7375+221.975L24.7375+73.26C24.7375+70.1567+25.7992+67.5025+27.9225+65.2975C30.0458+63.0925+32.6592+61.99+35.7625+61.99L85.0075+61.99C103.628+61.99+119.43+66.1142+132.415+74.3625C145.4+82.6108+155.159+93.2683+161.693+106.335C168.226+119.402+171.493+133.122+171.493+147.495C171.493+161.868+168.226+175.588+161.693+188.655C155.159+201.722+145.4+212.379+132.415+220.627C119.43+228.876+103.628+233+85.0075+233L35.7625+233ZM82.3125+212.175C95.7058+212.175+107.466+209.439+117.593+203.968C127.719+198.496+135.559+190.901+141.113+181.183C146.666+171.464+149.443+160.235+149.443+147.495C149.443+134.755+146.666+123.526+141.113+113.808C135.559+104.089+127.719+96.4942+117.593+91.0225C107.466+85.5508+95.7058+82.815+82.3125+82.815L47.0325+82.815L47.0325+212.175L82.3125+212.175Z" opacity="1" fill="url(#LinearGradient)" />
        <path opacity="1" d="M246.953+235.45C237.969+235.45+230.17+233.327+223.555+229.08C216.94+224.833+211.877+219.035+208.365+211.685C204.853+204.335+203.098+196.25+203.098+187.43L203.098+117.85C203.098+114.747+204.2+112.133+206.405+110.01C208.61+107.887+211.264+106.825+214.368+106.825C217.471+106.825+220.084+107.887+222.208+110.01C224.331+112.133+225.393+114.747+225.393+117.85L225.393+184.98C225.393+204.907+234.376+214.87+252.343+214.87C260.509+214.87+267.818+212.747+274.27+208.5C280.722+204.253+286.806+198.537+292.523+191.35L292.523+117.85C292.523+114.747+293.625+112.133+295.83+110.01C298.035+107.887+300.689+106.825+303.793+106.825C306.896+106.825+309.509+107.887+311.633+110.01C313.756+112.133+314.817+114.747+314.817+117.85L314.817+222.955C314.817+226.058+313.756+228.712+311.633+230.917C309.509+233.123+306.896+234.225+303.793+234.225C300.689+234.225+298.035+233.123+295.83+230.917C293.625+228.712+292.523+226.058+292.523+222.955L292.523+212.91C286.316+219.77+279.619+225.242+272.433+229.325C265.246+233.408+256.753+235.45+246.953+235.45Z" fill="url(#LinearGradient_2)" />
        <path opacity="1" fill="url(#LinearGradient_3)" d="M385.377+235.45C378.191+235.45+371.535+233.98+365.41+231.04C359.285+228.1+354.426+223.813+350.833+218.178C347.239+212.542+345.442+206.05+345.442+198.7C345.442+186.613+350.22+176.977+359.775+169.79C369.33+162.603+383.336+159.01+401.793+159.01L431.438+159.01L431.438+157.05C431.438+146.27+428.783+138.512+423.475+133.775C418.167+129.038+409.878+126.67+398.608+126.67C392.401+126.67+386.888+127.16+382.07+128.14C377.252+129.12+371.903+130.59+366.023+132.55C364.716+132.877+363.654+133.04+362.838+133.04C360.387+133.04+358.264+132.142+356.468+130.345C354.671+128.548+353.773+126.343+353.773+123.73C353.773+119.32+355.896+116.217+360.143+114.42C374.026+108.54+388.154+105.6+402.528+105.6C413.798+105.6+423.312+107.887+431.07+112.46C438.828+117.033+444.545+122.954+448.22+130.222C451.895+137.491+453.733+145.372+453.733+153.865L453.733+223.2C453.733+226.303+452.63+228.917+450.425+231.04C448.22+233.163+445.566+234.225+442.462+234.225C439.359+234.225+436.746+233.163+434.623+231.04C432.499+228.917+431.438+226.303+431.438+223.2L431.438+216.83C419.351+229.243+403.998+235.45+385.377+235.45ZM393.707+215.85C400.894+215.85+407.836+214.094+414.533+210.583C421.229+207.071+426.864+202.702+431.438+197.475L431.438+176.895L404.733+176.895C380.069+176.895+367.738+183.347+367.738+196.25C367.738+202.13+369.738+206.867+373.74+210.46C377.742+214.053+384.397+215.85+393.707+215.85Z" />
        <path fill="url(#LinearGradient_4)" d="M502.243+234.225C499.139+234.225+496.526+233.163+494.403+231.04C492.279+228.917+491.218+226.303+491.218+223.2L491.218+64.195C491.218+61.0917+492.279+58.4375+494.403+56.2325C496.526+54.0275+499.139+52.925+502.243+52.925C505.509+52.925+508.204+53.9867+510.327+56.11C512.451+58.2333+513.513+60.9283+513.513+64.195L513.513+223.2C513.513+226.303+512.41+228.917+510.205+231.04C508+233.163+505.346+234.225+502.243+234.225Z" opacity="1" />
        <path d="M562.758+82.57C559.327+82.57+556.388+81.345+553.938+78.895C551.487+76.445+550.263+73.505+550.263+70.075L550.263+69.095C550.263+65.665+551.487+62.725+553.938+60.275C556.388+57.825+559.327+56.6+562.758+56.6L564.228+56.6C567.658+56.6+570.597+57.825+573.048+60.275C575.498+62.725+576.723+65.665+576.723+69.095L576.723+70.075C576.723+73.505+575.498+76.445+573.048+78.895C570.597+81.345+567.658+82.57+564.228+82.57L562.758+82.57ZM563.248+234.225C560.144+234.225+557.531+233.163+555.408+231.04C553.284+228.917+552.223+226.303+552.223+223.2L552.223+118.095C552.223+114.992+553.284+112.338+555.408+110.133C557.531+107.927+560.144+106.825+563.248+106.825C566.514+106.825+569.209+107.887+571.333+110.01C573.456+112.133+574.518+114.828+574.518+118.095L574.518+223.2C574.518+226.303+573.415+228.917+571.21+231.04C569.005+233.163+566.351+234.225+563.248+234.225Z" opacity="1" fill="url(#LinearGradient_5)" />
        <path fill="url(#LinearGradient_6)" opacity="1" d="M656.348+235.45C632.501+235.45+620.578+224.67+620.578+203.11L620.578+127.16L603.183+127.16C601.876+127.16+600.773+126.711+599.875+125.812C598.977+124.914+598.528+123.812+598.528+122.505C598.528+120.872+599.262+119.483+600.733+118.34L634.053+85.755C635.523+84.285+636.911+83.55+638.218+83.55C639.524+83.55+640.627+84.04+641.525+85.02C642.423+86+642.873+87.1433+642.873+88.45L642.873+108.05L670.558+108.05C673.334+108.05+675.621+108.948+677.418+110.745C679.214+112.542+680.113+114.828+680.113+117.605C680.113+120.218+679.214+122.464+677.418+124.343C675.621+126.221+673.334+127.16+670.558+127.16L642.873+127.16L642.873+201.15C642.873+207.52+644.383+211.562+647.405+213.278C650.427+214.993+654.224+215.85+658.798+215.85C662.064+215.85+665.331+215.36+668.598+214.38C669.251+214.217+669.945+214.053+670.68+213.89C671.415+213.727+672.354+213.645+673.498+213.645C675.784+213.645+677.826+214.502+679.623+216.218C681.419+217.933+682.318+220.015+682.318+222.465C682.318+226.222+680.439+229.08+676.683+231.04C670.312+233.98+663.534+235.45+656.348+235.45Z" />
        <path d="M734.748+290.575C731.807+290.575+729.317+289.513+727.275+287.39C725.233+285.267+724.213+282.735+724.213+279.795C724.213+278.488+724.457+277.182+724.948+275.875L740.873+234.96L694.813+122.75C694.159+121.117+693.833+119.565+693.833+118.095C693.833+114.992+694.894+112.338+697.018+110.133C699.141+107.927+701.754+106.825+704.858+106.825C707.144+106.825+709.227+107.478+711.105+108.785C712.983+110.092+714.331+111.725+715.148+113.685L752.878+207.275L791.343+114.175C793.466+109.275+796.896+106.825+801.633+106.825C804.736+106.825+807.349+107.927+809.473+110.133C811.596+112.338+812.658+114.992+812.658+118.095C812.658+119.565+812.413+120.953+811.923+122.26L745.038+282.98C742.751+288.043+739.321+290.575+734.748+290.575Z" opacity="1" fill="url(#LinearGradient_7)" />
    </g>
</svg>