<?xml version="1.0" encoding="UTF-8" standalone="no"?>
<!DOCTYPE svg PUBLIC "-//W3C//DTD SVG 1.1//EN" "http://www.w3.org/Graphics/SVG/1.1/DTD/svg11.dtd">
<svg style="fill-rule:nonzero;clip-rule:evenodd;stroke-linecap:round;stroke-linejoin:round;" xmlns:xlink="http://www.w3.org/1999/xlink" version="1.1" viewBox="0 0 595.35 841.995" height="100%" xmlns="http://www.w3.org/2000/svg" xml:space="preserve" width="100%">
    <defs>
        <linearGradient gradientUnits="userSpaceOnUse" y2="0.113929" x1="-1.12823" x2="560.096" gradientTransform="matrix(1.06081 0 0 1.00367 1.19683 -0.114348)" y1="839.028" id="LinearGradient">
            <stop stop-color="#130a74" offset="0" />
            <stop stop-color="#162b86" offset="0.487913" />
            <stop offset="1" stop-color="#4953b6" />
        </linearGradient>
        <linearGradient x2="538.085" y1="790.406" gradientTransform="matrix(1.45169 -0.245816 0.397208 0.898395 -312.192 285.629)" gradientUnits="userSpaceOnUse" y2="657.681" x1="100.602" id="LinearGradient_2">
            <stop stop-color="#ca0a74" offset="0" />
            <stop offset="0.831672" stop-color="#fcffdc" />
            <stop stop-color="#f4f6a9" offset="1" />
        </linearGradient>
        <linearGradient gradientTransform="matrix(-0.990761 -1.08914 0.541691 -0.819425 -125.516 995.218)" gradientUnits="userSpaceOnUse" x2="538.085" y1="790.406" y2="657.681" x1="100.602" id="LinearGradient_3">
            <stop stop-color="#ca0a74" offset="0" />
            <stop offset="0.831672" stop-color="#fcffdc" />
            <stop offset="1" stop-color="#f4f6a9" />
        </linearGradient>
    </defs>
    <g id="Background">
        <path opacity="1" fill="url(#LinearGradient)" d="M0+0L595.35+0L595.35+841.995L0+841.995L0+0Z" />
    </g>
    <g id="Graphics">
        <g opacity="1">
            <path d="M398.54+664.374C398.54+664.374+381.898+669.295+352.528+678.953C341.586+682.551+331.238+687.473+322.874+693.128C311.283+700.964+299.496+709.748+294.862+720.296C291.384+728.213+292.096+736.081+292.518+744.147C293.152+756.254+294.353+768.176+295.515+780.275C298.199+808.245+296.915+837.562+288.055+865.095C282.175+883.371+269.095+901.824+252.145+917.213C244.388+924.256+237.339+929.371+233.087+937.822C228.601+946.736+227.262+962.763+244.754+967.073C253.573+969.247+263.581+968.826+273.072+968.945C286.308+969.111+303.968+967.613+316.114+966.578C346.918+963.952+377.241+958.673+406.679+952.492C423.709+948.916+439.804+943.792+455.952+938.893C478.737+931.982+501.929+926.628+522.06+916.606C538.232+908.555+552.258+898.738+566.607+889.498C574.537+884.392+582.584+879.371+589.346+873.629C600.396+864.247+610.068+854.053+620.126+844.263C630.865+833.81+638.456+826.973+646.485+816.322C653.263+807.33+657.837+798.253+663.494+788.929C674.194+771.295+687.429+754.226+694.026+735.729C702.499+711.971+703.117+687.343+693.994+663.658C692.258+659.153+691.079+654.497+688.069+650.257C682.763+642.783+673.707+636.66+664.841+630.749C654.979+624.174+641.189+617.023+626.991+614.644C616.15+612.827+603.172+614.017+592.231+614.777C565.311+616.646+539.243+622.241+514.671+629.022C495.121+634.417+475.129+639.228+455.921+645.077C441.975+649.324+428.989+654.862+414.904+658.904C404.481+661.894+393.992+664.544+383.943+668.039" fill="url(#LinearGradient_2)" opacity="1" />
            <path opacity="1" fill="none" d="M406.031+504.344C400.807+505.108+395.595+505.953+390.406+506.938C395.597+505.952+400.806+505.108+406.031+504.344ZM507.844+504.938C509.582+505.875+511.219+507.032+512.75+508.281C511.211+507.024+509.59+505.88+507.844+504.938ZM512.75+508.281C513.234+508.677+513.66+509.144+514.125+509.562C513.658+509.142+513.237+508.678+512.75+508.281ZM514.125+509.562C515.069+510.411+516.006+511.268+516.875+512.188C516.747+512.053+516.66+511.884+516.531+511.75C515.783+510.976+514.929+510.286+514.125+509.562ZM516.875+512.188C518.119+513.502+519.164+514.981+520.281+516.406C519.322+515.179+518.494+513.869+517.438+512.719C517.264+512.53+517.052+512.375+516.875+512.188ZM520.281+516.406C521.346+517.768+522.478+519.062+523.438+520.5C522.475+519.062+521.347+517.766+520.281+516.406ZM523.438+520.5C524.29+521.774+525.033+523.118+525.812+524.438C525.032+523.118+524.288+521.774+523.438+520.5ZM525.812+524.438C526.789+526.087+527.831+527.71+528.719+529.406C528.6+529.18+528.493+528.944+528.375+528.719C527.605+527.253+526.659+525.869+525.812+524.438ZM349.594+518.062C348.151+518.063+346.698+518.313+345.25+518.406C346.836+518.303+348.42+518.084+350+518.094C349.864+518.093+349.73+518.062+349.594+518.062ZM350+518.094C351.017+518.1+352.022+518.157+353.031+518.219C352.022+518.158+351.016+518.1+350+518.094ZM345.25+518.406C343.021+518.551+340.804+518.626+338.594+518.938C340.796+518.628+343.031+518.549+345.25+518.406ZM338.594+518.938C336.932+519.171+335.353+519.484+333.719+519.781C335.342+519.487+336.943+519.17+338.594+518.938ZM333.719+519.781C331.979+520.097+330.189+520.365+328.5+520.719C328.062+520.811+327.625+520.906+327.188+521C329.303+520.543+331.521+520.181+333.719+519.781ZM360.812+519.281C362.28+519.632+363.705+520.128+365.125+520.656C363.703+520.127+362.281+519.632+360.812+519.281ZM316.156+523.531C314.754+523.862+313.359+524.195+311.969+524.562C313.357+524.196+314.755+523.862+316.156+523.531ZM311.969+524.562C309.485+525.219+307.015+525.956+304.594+526.875C307.012+525.957+309.486+525.22+311.969+524.562ZM530.531+533.094C531.763+535.531+533.01+537.948+534.062+540.469C533.013+537.949+531.764+535.529+530.531+533.094ZM534.156+540.719C534.885+542.483+535.559+544.275+536.125+546.094C535.561+544.276+534.884+542.483+534.156+540.719ZM537.562+551.906C537.945+554.094+538.058+556.299+538.062+558.5C538.055+556.297+537.944+554.09+537.562+551.906ZM265.875+556.562C264.669+558.588+263.666+560.706+262.781+562.875C263.669+560.708+264.671+558.585+265.875+556.562ZM262.781+562.875C262.26+564.148+261.845+565.473+261.406+566.781C261.843+565.472+262.261+564.15+262.781+562.875ZM538+560.969C537.955+562.434+537.913+563.908+537.844+565.375C537.862+564.979+537.886+564.583+537.906+564.188C537.962+563.117+537.967+562.04+538+560.969ZM260.562+569.344C259.573+572.655+258.805+576.015+258.031+579.375C258.81+576.022+259.578+572.655+260.562+569.344ZM257.125+583.062C257.05+583.385+256.95+583.71+256.875+584.031C253.591+598.034+250.873+612.164+247.688+626.188C250.946+611.843+253.782+597.389+257.125+583.062ZM208.844+724.438C207.448+726.402+205.893+728.257+204.406+730.156C205.893+728.257+207.447+726.403+208.844+724.438ZM204.406+730.156C203.076+731.855+201.806+733.606+200.406+735.25C201.807+733.605+203.076+731.856+204.406+730.156ZM200.406+735.25C199.642+736.148+198.816+736.994+198.031+737.875C198.817+736.993+199.641+736.149+200.406+735.25ZM198.031+737.875C195.872+740.298+193.718+742.707+191.406+745C191.6+744.808+191.807+744.631+192+744.438C194.105+742.327+196.055+740.094+198.031+737.875ZM411.156+767C407.389+769.889+403.395+772.448+399.375+774.969C401.267+773.817+403.205+772.745+405.031+771.5C407.113+770.081+409.157+768.534+411.156+767ZM399.375+774.969C396.939+776.452+394.534+777.976+392.094+779.438C389.785+780.821+387.488+782.227+385.188+783.625C389.935+780.775+394.681+777.912+399.375+774.969ZM383.219+784.812C379.771+786.906+376.286+788.944+372.781+790.969C375.78+789.236+378.798+787.508+381.75+785.719C382.242+785.421+382.727+785.111+383.219+784.812ZM368.562+793.406C368.172+793.621+367.767+793.819+367.375+794.031C367.769+793.817+368.17+793.623+368.562+793.406ZM367.375+794.031C362.978+796.415+358.536+798.648+353.906+800.531C358.531+798.65+362.984+796.411+367.375+794.031ZM163.844+803.344C164.84+804.101+165.902+804.732+167+805.312C165.902+804.731+164.843+804.103+163.844+803.344ZM167+805.312C167.49+805.572+167.995+805.8+168.5+806.031C167.998+805.802+167.487+805.57+167+805.312ZM168.5+806.031C169.117+806.313+169.741+806.597+170.375+806.844C169.738+806.596+169.119+806.314+168.5+806.031ZM170.375+806.844C171.671+807.347+173.01+807.721+174.344+808.125C173.011+807.72+171.674+807.349+170.375+806.844ZM174.344+808.125C175.193+808.383+176.029+808.698+176.875+808.938C177.073+808.993+177.271+809.038+177.469+809.094C176.426+808.802+175.389+808.442+174.344+808.125ZM177.469+809.094C177.781+809.181+178.096+809.288+178.406+809.375C182.909+810.634+187.368+811.832+191.969+812.688C187.046+811.772+182.281+810.45+177.469+809.094ZM191.969+812.688C198.057+813.819+204.206+814.733+210.375+815.469C204.205+814.732+198.059+813.82+191.969+812.688ZM210.375+815.469C213.005+815.783+215.645+815.916+218.281+816.156C215.649+815.916+213.002+815.782+210.375+815.469ZM218.281+816.156C221.435+816.444+224.597+816.82+227.75+817C228.104+817.02+228.458+817.012+228.812+817.031C225.301+816.845+221.791+816.476+218.281+816.156ZM228.812+817.031C229.313+817.058+229.812+817.132+230.312+817.156C233.352+817.301+236.397+817.294+239.438+817.344C235.889+817.281+232.356+817.22+228.812+817.031ZM239.438+817.344C243.004+817.406+246.558+817.421+250.125+817.375C246.563+817.422+242.999+817.402+239.438+817.344ZM250.125+817.375C253.457+817.331+256.793+817.332+260.125+817.219C260.531+817.205+260.937+817.171+261.344+817.156C257.607+817.304+253.865+817.326+250.125+817.375ZM272.469+816.562C269.015+816.815+265.557+816.984+262.094+817.125C265.555+816.994+269.016+816.817+272.469+816.562Z" />
        </g>
        <g opacity="1">
            <path fill="url(#LinearGradient_3)" d="M-190.501+192.494C-190.501+192.494-177.373+203.844-153.384+223.35C-144.447+230.617-134.718+236.669-125.441+240.656C-112.587+246.18-98.8293+251.359-87.4489+249.563C-78.9078+248.216-72.6693+243.367-66.1086+238.657C-56.2603+231.587-46.8742+224.138-37.3174+216.627C-15.2254+199.265+10.1439+184.516+38.1019+177.106C56.6599+172.188+79.2549+173.232+101.36+179.189C111.476+181.916+119.588+185.087+128.996+184.103C138.921+183.065+153.134+175.538+147.317+158.488C144.384+149.891+138.627+141.695+133.602+133.642C126.595+122.412+115.799+108.357+108.368+98.692C89.5254+74.1832+68.7086+51.5105+47.6107+30.0709C35.4053+17.6678+22.4014+6.88776+9.55927-4.0592C-8.56115-19.5055-25.5903-36.1346-44.895-47.6671C-60.404-56.932-76.2402-63.4362-91.7658-70.5252C-100.345-74.4425-108.917-78.5043-117.401-81.0956C-131.264-85.3299-145.066-87.9659-158.737-91.1455C-173.335-94.5406-183.189-97.2379-196.489-98.2445C-207.717-99.0943-217.827-98.0426-228.729-97.7698C-249.349-97.2537-270.862-99.1774-289.994-94.742C-314.565-89.0455-335.628-76.2672-350.637-55.7992C-353.492-51.9061-356.773-48.3991-358.717-43.5762C-362.143-35.0749-362.407-24.146-362.595-13.4922C-362.804-1.64082-361.376+13.8273-355.712+27.0624C-351.388+37.168-343.378+47.4489-336.832+56.2471C-320.722+77.8964-301.937+96.8168-282.962+113.837C-267.865+127.379-253.021+141.608-237.726+154.617C-226.621+164.062-214.948+172.002-203.94+181.675C-195.795+188.833-187.901+196.231-179.533+202.801" opacity="1" />
            <path d="" opacity="1" fill="none" />
        </g>
    </g>
    <g id="Text">
        <g opacity="1">
            <path d="M77.4445+390.998C76.1779+390.998+75.1112+390.564+74.2445+389.697C73.3779+388.831+72.9445+387.764+72.9445+386.498L72.9445+325.798C72.9445+324.531+73.3779+323.448+74.2445+322.548C75.1112+321.647+76.1779+321.197+77.4445+321.197L97.5445+321.197C105.145+321.197+111.595+322.881+116.895+326.248C122.195+329.614+126.178+333.964+128.845+339.298C131.511+344.631+132.845+350.231+132.845+356.098C132.845+361.964+131.511+367.564+128.845+372.898C126.178+378.231+122.195+382.581+116.895+385.947C111.595+389.314+105.145+390.998+97.5445+390.998L77.4445+390.998ZM96.4445+382.498C101.911+382.498+106.711+381.381+110.845+379.148C114.978+376.914+118.178+373.814+120.445+369.847C122.711+365.881+123.845+361.298+123.845+356.098C123.845+350.897+122.711+346.314+120.445+342.347C118.178+338.381+114.978+335.281+110.845+333.048C106.711+330.814+101.911+329.697+96.4445+329.697L82.0445+329.697L82.0445+382.498L96.4445+382.498Z" opacity="1" fill="#efefef" />
            <path opacity="1" d="M163.645+391.998C159.978+391.998+156.795+391.131+154.095+389.398C151.395+387.664+149.328+385.298+147.895+382.298C146.461+379.297+145.745+375.998+145.745+372.398L145.745+343.998C145.745+342.731+146.195+341.664+147.095+340.798C147.995+339.931+149.078+339.498+150.345+339.498C151.611+339.498+152.678+339.931+153.545+340.798C154.411+341.664+154.845+342.731+154.845+343.998L154.845+371.398C154.845+379.531+158.511+383.597+165.845+383.597C169.178+383.597+172.161+382.731+174.795+380.998C177.428+379.264+179.911+376.931+182.245+373.998L182.245+343.998C182.245+342.731+182.695+341.664+183.595+340.798C184.495+339.931+185.578+339.498+186.845+339.498C188.111+339.498+189.178+339.931+190.045+340.798C190.911+341.664+191.345+342.731+191.345+343.998L191.345+386.898C191.345+388.164+190.911+389.247+190.045+390.148C189.178+391.048+188.111+391.498+186.845+391.498C185.578+391.498+184.495+391.048+183.595+390.148C182.695+389.247+182.245+388.164+182.245+386.898L182.245+382.798C179.711+385.598+176.978+387.831+174.045+389.498C171.111+391.164+167.645+391.998+163.645+391.998Z" fill="#efefef" />
            <path fill="#efefef" opacity="1" d="M220.145+391.998C217.211+391.998+214.495+391.398+211.995+390.197C209.495+388.997+207.511+387.248+206.045+384.947C204.578+382.647+203.845+379.998+203.845+376.998C203.845+372.064+205.795+368.131+209.695+365.197C213.595+362.264+219.311+360.798+226.845+360.798L238.945+360.798L238.945+359.998C238.945+355.597+237.861+352.431+235.695+350.498C233.528+348.564+230.145+347.597+225.545+347.597C223.011+347.597+220.761+347.797+218.795+348.197C216.828+348.598+214.645+349.197+212.245+349.998C211.711+350.131+211.278+350.197+210.945+350.197C209.945+350.197+209.078+349.831+208.345+349.097C207.611+348.364+207.245+347.464+207.245+346.397C207.245+344.597+208.111+343.331+209.845+342.597C215.511+340.197+221.278+338.998+227.145+338.998C231.745+338.998+235.628+339.931+238.795+341.798C241.961+343.664+244.295+346.081+245.795+349.048C247.295+352.014+248.045+355.231+248.045+358.697L248.045+386.998C248.045+388.264+247.595+389.331+246.695+390.197C245.795+391.064+244.711+391.498+243.445+391.498C242.178+391.498+241.111+391.064+240.245+390.197C239.378+389.331+238.945+388.264+238.945+386.998L238.945+384.398C234.011+389.464+227.745+391.998+220.145+391.998ZM223.545+383.998C226.478+383.998+229.311+383.281+232.045+381.847C234.778+380.414+237.078+378.631+238.945+376.498L238.945+368.097L228.045+368.097C217.978+368.097+212.945+370.731+212.945+375.998C212.945+378.398+213.761+380.331+215.395+381.798C217.028+383.264+219.745+383.998+223.545+383.998Z" />
            <path d="M267.845+391.498C266.578+391.498+265.511+391.064+264.645+390.197C263.778+389.331+263.345+388.264+263.345+386.998L263.345+322.097C263.345+320.831+263.778+319.748+264.645+318.847C265.511+317.947+266.578+317.498+267.845+317.498C269.178+317.498+270.278+317.931+271.145+318.798C272.011+319.664+272.445+320.764+272.445+322.097L272.445+386.998C272.445+388.264+271.995+389.331+271.095+390.197C270.195+391.064+269.111+391.498+267.845+391.498Z" opacity="1" fill="#efefef" />
            <path opacity="1" fill="#efefef" d="M292.545+329.597C291.145+329.597+289.945+329.098+288.945+328.097C287.945+327.097+287.445+325.898+287.445+324.498L287.445+324.097C287.445+322.697+287.945+321.498+288.945+320.498C289.945+319.497+291.145+318.998+292.545+318.998L293.145+318.998C294.545+318.998+295.745+319.497+296.745+320.498C297.745+321.498+298.245+322.697+298.245+324.097L298.245+324.498C298.245+325.898+297.745+327.097+296.745+328.097C295.745+329.098+294.545+329.597+293.145+329.597L292.545+329.597ZM292.745+391.498C291.478+391.498+290.411+391.064+289.545+390.197C288.678+389.331+288.245+388.264+288.245+386.998L288.245+344.097C288.245+342.831+288.678+341.748+289.545+340.847C290.411+339.947+291.478+339.498+292.745+339.498C294.078+339.498+295.178+339.931+296.045+340.798C296.911+341.664+297.345+342.764+297.345+344.097L297.345+386.998C297.345+388.264+296.895+389.331+295.995+390.197C295.095+391.064+294.011+391.498+292.745+391.498Z" />
            <path fill="#efefef" d="M330.745+391.998C321.011+391.998+316.145+387.598+316.145+378.798L316.145+347.798L309.045+347.798C308.511+347.798+308.061+347.614+307.695+347.248C307.328+346.881+307.145+346.431+307.145+345.897C307.145+345.231+307.445+344.664+308.045+344.197L321.645+330.897C322.245+330.297+322.811+329.998+323.345+329.998C323.878+329.998+324.328+330.197+324.695+330.597C325.061+330.998+325.245+331.464+325.245+331.998L325.245+339.998L336.545+339.998C337.678+339.998+338.611+340.364+339.345+341.097C340.078+341.831+340.445+342.764+340.445+343.897C340.445+344.964+340.078+345.881+339.345+346.647C338.611+347.414+337.678+347.798+336.545+347.798L325.245+347.798L325.245+377.998C325.245+380.598+325.861+382.247+327.095+382.947C328.328+383.648+329.878+383.998+331.745+383.998C333.078+383.998+334.411+383.798+335.745+383.398C336.011+383.331+336.295+383.264+336.595+383.197C336.895+383.131+337.278+383.097+337.745+383.097C338.678+383.097+339.511+383.447+340.245+384.148C340.978+384.848+341.345+385.697+341.345+386.697C341.345+388.231+340.578+389.397+339.045+390.197C336.445+391.398+333.678+391.998+330.745+391.998Z" opacity="1" />
            <path fill="#efefef" d="M362.745+414.498C361.545+414.498+360.528+414.064+359.695+413.197C358.861+412.331+358.445+411.298+358.445+410.097C358.445+409.564+358.545+409.031+358.745+408.498L365.245+391.798L346.445+345.998C346.178+345.331+346.045+344.698+346.045+344.097C346.045+342.831+346.478+341.748+347.345+340.847C348.211+339.947+349.278+339.498+350.545+339.498C351.478+339.498+352.328+339.764+353.095+340.298C353.861+340.831+354.411+341.497+354.745+342.298L370.145+380.498L385.845+342.498C386.711+340.497+388.111+339.498+390.045+339.498C391.311+339.498+392.378+339.947+393.245+340.847C394.111+341.748+394.545+342.831+394.545+344.097C394.545+344.698+394.445+345.264+394.245+345.798L366.945+411.398C366.011+413.464+364.611+414.498+362.745+414.498Z" opacity="1" />
        </g>
        <g opacity="1">
            <path opacity="1" d="M81.7295+465.998L81.7295+435.488L72.1445+435.488L72.1445+434.498L92.3045+434.498L92.3045+435.488L82.7195+435.488L82.7195+465.998L81.7295+465.998Z" fill="#efefef" />
            <path fill="#efefef" d="M96.3545+465.998L96.3545+432.697L97.3445+432.697L97.3445+447.817L96.9395+447.908C97.2695+446.857+97.892+445.898+98.807+445.028C99.722+444.157+100.817+443.46+102.092+442.935C103.367+442.41+104.725+442.147+106.165+442.147C107.935+442.147+109.435+442.462+110.665+443.093C111.895+443.723+112.84+444.705+113.5+446.04C114.16+447.375+114.49+449.107+114.49+451.238L114.49+465.998L113.5+465.998L113.5+451.238C113.5+449.347+113.207+447.803+112.622+446.603C112.037+445.402+111.197+444.525+110.102+443.97C109.007+443.415+107.665+443.137+106.075+443.137C104.815+443.137+103.652+443.355+102.587+443.79C101.522+444.225+100.6+444.765+99.8195+445.41C99.0395+446.055+98.432+446.715+97.997+447.39C97.562+448.065+97.3445+448.627+97.3445+449.077L97.3445+465.998L96.8495+465.998C96.7895+465.998+96.722+465.998+96.647+465.998C96.572+465.998+96.4745+465.998+96.3545+465.998Z" opacity="1" />
            <path opacity="1" fill="#efefef" d="M121.465+465.998L121.465+442.373L122.455+442.373L122.455+465.998L121.465+465.998ZM121.96+436.163C121.54+436.163+121.225+436.043+121.015+435.803C120.805+435.562+120.7+435.248+120.7+434.858C120.7+434.497+120.805+434.19+121.015+433.935C121.225+433.68+121.54+433.553+121.96+433.553C122.35+433.553+122.657+433.672+122.882+433.913C123.107+434.153+123.22+434.467+123.22+434.858C123.22+435.248+123.115+435.562+122.905+435.803C122.695+436.043+122.38+436.163+121.96+436.163Z" />
            <path fill="#efefef" d="M129.52+465.998L129.52+442.373L130.42+442.373L130.51+447.817L130.105+447.952C130.435+446.932+131.05+445.98+131.95+445.095C132.85+444.21+133.937+443.498+135.212+442.957C136.487+442.417+137.86+442.147+139.33+442.147C141.1+442.147+142.6+442.462+143.83+443.093C145.06+443.723+146.005+444.705+146.665+446.04C147.325+447.375+147.655+449.107+147.655+451.238L147.655+465.998L146.665+465.998L146.665+451.238C146.665+449.347+146.372+447.803+145.787+446.603C145.202+445.402+144.362+444.525+143.267+443.97C142.172+443.415+140.83+443.137+139.24+443.137C137.98+443.137+136.817+443.355+135.752+443.79C134.687+444.225+133.765+444.765+132.985+445.41C132.205+446.055+131.597+446.715+131.162+447.39C130.727+448.065+130.51+448.627+130.51+449.077L130.51+465.998L130.015+465.998C129.955+465.998+129.887+465.998+129.812+465.998C129.737+465.998+129.64+465.998+129.52+465.998Z" opacity="1" />
            <path fill="#efefef" d="M154.495+457.942L154.495+456.502L168.76+442.373L170.2+442.373L154.495+457.942ZM153.865+465.998L153.865+432.697L154.855+432.697L154.855+465.998L153.865+465.998ZM170.335+465.998L158.95+452.903L159.715+452.183L171.73+465.998L170.335+465.998Z" opacity="1" />
            <path opacity="1" fill="#efefef" d="M188.65+465.998L188.65+442.373L189.64+442.373L189.64+465.998L188.65+465.998ZM189.145+436.163C188.725+436.163+188.41+436.043+188.2+435.803C187.99+435.562+187.885+435.248+187.885+434.858C187.885+434.497+187.99+434.19+188.2+433.935C188.41+433.68+188.725+433.553+189.145+433.553C189.535+433.553+189.842+433.672+190.067+433.913C190.292+434.153+190.405+434.467+190.405+434.858C190.405+435.248+190.3+435.562+190.09+435.803C189.88+436.043+189.565+436.163+189.145+436.163Z" />
            <path opacity="1" d="M196.705+465.998L196.705+442.373L197.605+442.373L197.695+447.817L197.29+447.952C197.62+446.932+198.235+445.98+199.135+445.095C200.035+444.21+201.122+443.498+202.397+442.957C203.672+442.417+205.045+442.147+206.515+442.147C208.285+442.147+209.785+442.462+211.015+443.093C212.245+443.723+213.19+444.705+213.85+446.04C214.51+447.375+214.84+449.107+214.84+451.238L214.84+465.998L213.85+465.998L213.85+451.238C213.85+449.347+213.557+447.803+212.972+446.603C212.387+445.402+211.547+444.525+210.452+443.97C209.357+443.415+208.015+443.137+206.425+443.137C205.165+443.137+204.002+443.355+202.937+443.79C201.872+444.225+200.95+444.765+200.17+445.41C199.39+446.055+198.782+446.715+198.347+447.39C197.912+448.065+197.695+448.627+197.695+449.077L197.695+465.998L197.2+465.998C197.14+465.998+197.072+465.998+196.997+465.998C196.922+465.998+196.825+465.998+196.705+465.998Z" fill="#efefef" />
            <path fill="#efefef" d="M229.06+466.447C227.08+466.447+225.28+466.073+223.66+465.322C222.04+464.572+220.795+463.583+219.925+462.353L220.69+461.678C221.53+462.788+222.67+463.695+224.11+464.4C225.55+465.105+227.23+465.457+229.15+465.457C230.38+465.457+231.43+465.308+232.3+465.007C233.17+464.707+233.875+464.303+234.415+463.793C234.955+463.282+235.36+462.705+235.63+462.06C235.9+461.415+236.035+460.733+236.035+460.012C236.035+458.542+235.405+457.388+234.145+456.548C233.545+456.097+232.795+455.708+231.895+455.377C230.995+455.047+229.945+454.748+228.745+454.478C227.395+454.147+226.202+453.773+225.167+453.353C224.132+452.932+223.285+452.453+222.625+451.913C222.025+451.402+221.575+450.855+221.275+450.27C220.975+449.685+220.825+449.033+220.825+448.312C220.825+447.382+221.012+446.543+221.387+445.793C221.762+445.042+222.287+444.39+222.962+443.835C223.637+443.28+224.462+442.86+225.437+442.575C226.412+442.29+227.5+442.147+228.7+442.147C229.75+442.147+230.77+442.297+231.76+442.598C232.75+442.898+233.68+443.332+234.55+443.903C235.42+444.473+236.2+445.162+236.89+445.973L236.17+446.783C235.51+446.032+234.79+445.38+234.01+444.825C233.23+444.27+232.397+443.85+231.512+443.565C230.627+443.28+229.69+443.137+228.7+443.137C227.62+443.137+226.652+443.265+225.797+443.52C224.942+443.775+224.215+444.135+223.615+444.6C223.015+445.065+222.565+445.605+222.265+446.22C221.965+446.835+221.815+447.517+221.815+448.267C221.815+448.778+221.92+449.272+222.13+449.752C222.34+450.233+222.685+450.667+223.165+451.058C223.765+451.568+224.552+452.017+225.527+452.408C226.502+452.798+227.635+453.142+228.925+453.442C230.275+453.743+231.452+454.08+232.457+454.455C233.462+454.83+234.295+455.272+234.955+455.783C235.645+456.293+236.162+456.892+236.507+457.582C236.852+458.273+237.025+459.082+237.025+460.012C237.025+461.303+236.71+462.435+236.08+463.41C235.45+464.385+234.535+465.135+233.335+465.66C232.135+466.185+230.71+466.447+229.06+466.447Z" opacity="1" />
            <path d="M243.37+465.998L243.37+442.373L244.36+442.373L244.36+465.998L243.37+465.998ZM243.865+436.163C243.445+436.163+243.13+436.043+242.92+435.803C242.71+435.562+242.605+435.248+242.605+434.858C242.605+434.497+242.71+434.19+242.92+433.935C243.13+433.68+243.445+433.553+243.865+433.553C244.255+433.553+244.562+433.672+244.787+433.913C245.012+434.153+245.125+434.467+245.125+434.858C245.125+435.248+245.02+435.562+244.81+435.803C244.6+436.043+244.285+436.163+243.865+436.163Z" fill="#efefef" opacity="1" />
            <path opacity="1" d="M261.505+466.447C259.315+466.447+257.357+465.93+255.632+464.895C253.907+463.86+252.55+462.435+251.56+460.62C250.57+458.805+250.075+456.728+250.075+454.387C250.075+452.017+250.585+449.91+251.605+448.065C252.625+446.22+253.982+444.773+255.677+443.723C257.372+442.672+259.255+442.147+261.325+442.147C262.525+442.147+263.687+442.35+264.812+442.755C265.937+443.16+266.965+443.73+267.895+444.465C268.825+445.2+269.605+446.055+270.235+447.03C270.865+448.005+271.285+449.077+271.495+450.248L271.225+450.113L271.225+432.697L272.215+432.697L272.215+465.998L271.225+465.998L271.225+458.257L271.63+458.123C271.33+459.323+270.865+460.432+270.235+461.452C269.605+462.473+268.84+463.357+267.94+464.108C267.04+464.858+266.05+465.435+264.97+465.84C263.89+466.245+262.735+466.447+261.505+466.447ZM261.46+465.457C263.29+465.457+264.947+464.985+266.432+464.04C267.917+463.095+269.087+461.783+269.942+460.103C270.797+458.422+271.225+456.488+271.225+454.298C271.225+452.137+270.797+450.218+269.942+448.538C269.087+446.857+267.917+445.538+266.432+444.577C264.947+443.617+263.26+443.137+261.37+443.137C259.36+443.137+257.575+443.617+256.015+444.577C254.455+445.538+253.24+446.865+252.37+448.56C251.5+450.255+251.065+452.197+251.065+454.387C251.065+456.518+251.5+458.415+252.37+460.08C253.24+461.745+254.455+463.057+256.015+464.017C257.575+464.978+259.39+465.457+261.46+465.457Z" fill="#efefef" />
            <path d="M288.82+466.447C286.54+466.447+284.53+465.923+282.79+464.873C281.05+463.822+279.692+462.368+278.717+460.507C277.742+458.647+277.255+456.533+277.255+454.163C277.255+452.392+277.525+450.773+278.065+449.303C278.605+447.832+279.362+446.565+280.337+445.5C281.312+444.435+282.475+443.61+283.825+443.025C285.175+442.44+286.66+442.147+288.28+442.147C289.78+442.147+291.16+442.395+292.42+442.89C293.68+443.385+294.767+444.105+295.682+445.05C296.597+445.995+297.295+447.127+297.775+448.447C298.255+449.768+298.465+451.252+298.405+452.903L298.36+454.072L277.795+454.072L277.795+453.082L297.865+453.082L297.325+453.848L297.415+452.723C297.415+450.802+297.01+449.123+296.2+447.683C295.39+446.242+294.302+445.125+292.937+444.33C291.572+443.535+290.065+443.137+288.415+443.137C286.375+443.137+284.597+443.61+283.082+444.555C281.567+445.5+280.39+446.805+279.55+448.47C278.71+450.135+278.275+452.032+278.245+454.163C278.275+456.353+278.74+458.302+279.64+460.012C280.54+461.723+281.777+463.057+283.352+464.017C284.927+464.978+286.75+465.457+288.82+465.457C290.38+465.457+291.82+465.173+293.14+464.603C294.46+464.032+295.645+463.253+296.695+462.262L297.235+463.072C296.485+463.763+295.682+464.355+294.827+464.85C293.972+465.345+293.042+465.735+292.037+466.02C291.032+466.305+289.96+466.447+288.82+466.447Z" opacity="1" fill="#efefef" />
            <path fill="#efefef" d="M319.915+465.998L319.915+436.343L320.905+436.343L320.905+465.998L319.915+465.998ZM313.48+443.363L313.48+442.373L327.655+442.373L327.655+443.363L313.48+443.363Z" opacity="1" />
            <path opacity="1" d="M331.48+465.998L331.48+432.697L332.47+432.697L332.47+447.817L332.065+447.908C332.395+446.857+333.017+445.898+333.932+445.028C334.847+444.157+335.942+443.46+337.217+442.935C338.492+442.41+339.85+442.147+341.29+442.147C343.06+442.147+344.56+442.462+345.79+443.093C347.02+443.723+347.965+444.705+348.625+446.04C349.285+447.375+349.615+449.107+349.615+451.238L349.615+465.998L348.625+465.998L348.625+451.238C348.625+449.347+348.332+447.803+347.747+446.603C347.162+445.402+346.322+444.525+345.227+443.97C344.132+443.415+342.79+443.137+341.2+443.137C339.94+443.137+338.777+443.355+337.712+443.79C336.647+444.225+335.725+444.765+334.945+445.41C334.165+446.055+333.557+446.715+333.122+447.39C332.687+448.065+332.47+448.627+332.47+449.077L332.47+465.998L331.975+465.998C331.915+465.998+331.847+465.998+331.772+465.998C331.697+465.998+331.6+465.998+331.48+465.998Z" fill="#efefef" />
            <path fill="#efefef" d="M366.04+466.447C363.76+466.447+361.75+465.923+360.01+464.873C358.27+463.822+356.912+462.368+355.937+460.507C354.962+458.647+354.475+456.533+354.475+454.163C354.475+452.392+354.745+450.773+355.285+449.303C355.825+447.832+356.582+446.565+357.557+445.5C358.532+444.435+359.695+443.61+361.045+443.025C362.395+442.44+363.88+442.147+365.5+442.147C367+442.147+368.38+442.395+369.64+442.89C370.9+443.385+371.987+444.105+372.902+445.05C373.817+445.995+374.515+447.127+374.995+448.447C375.475+449.768+375.685+451.252+375.625+452.903L375.58+454.072L355.015+454.072L355.015+453.082L375.085+453.082L374.545+453.848L374.635+452.723C374.635+450.802+374.23+449.123+373.42+447.683C372.61+446.242+371.522+445.125+370.157+444.33C368.792+443.535+367.285+443.137+365.635+443.137C363.595+443.137+361.817+443.61+360.302+444.555C358.787+445.5+357.61+446.805+356.77+448.47C355.93+450.135+355.495+452.032+355.465+454.163C355.495+456.353+355.96+458.302+356.86+460.012C357.76+461.723+358.997+463.057+360.572+464.017C362.147+464.978+363.97+465.457+366.04+465.457C367.6+465.457+369.04+465.173+370.36+464.603C371.68+464.032+372.865+463.253+373.915+462.262L374.455+463.072C373.705+463.763+372.902+464.355+372.047+464.85C371.192+465.345+370.262+465.735+369.257+466.02C368.252+466.305+367.18+466.447+366.04+466.447Z" opacity="1" />
            <path fill="#efefef" opacity="1" d="M403.84+466.447C402.64+466.447+401.477+466.245+400.352+465.84C399.227+465.435+398.2+464.865+397.27+464.13C396.34+463.395+395.56+462.54+394.93+461.565C394.3+460.59+393.88+459.518+393.67+458.348L393.94+458.483L393.85+465.998L392.95+465.998L392.95+432.697L393.94+432.697L393.94+450.337L393.535+450.473C393.835+449.242+394.3+448.125+394.93+447.12C395.56+446.115+396.325+445.238+397.225+444.488C398.125+443.737+399.122+443.16+400.217+442.755C401.312+442.35+402.46+442.147+403.66+442.147C405.85+442.147+407.807+442.665+409.532+443.7C411.257+444.735+412.615+446.16+413.605+447.975C414.595+449.79+415.09+451.867+415.09+454.207C415.09+456.578+414.58+458.685+413.56+460.53C412.54+462.375+411.182+463.822+409.487+464.873C407.792+465.923+405.91+466.447+403.84+466.447ZM403.795+465.457C405.805+465.457+407.59+464.978+409.15+464.017C410.71+463.057+411.925+461.73+412.795+460.035C413.665+458.34+414.1+456.398+414.1+454.207C414.1+452.077+413.665+450.18+412.795+448.515C411.925+446.85+410.71+445.538+409.15+444.577C407.59+443.617+405.775+443.137+403.705+443.137C401.875+443.137+400.217+443.61+398.732+444.555C397.247+445.5+396.077+446.812+395.222+448.493C394.367+450.173+393.94+452.107+393.94+454.298C393.94+456.458+394.367+458.377+395.222+460.058C396.077+461.738+397.247+463.057+398.732+464.017C400.217+464.978+401.905+465.457+403.795+465.457Z" />
            <path d="M421.03+465.998L421.03+432.697L422.02+432.697L422.02+465.998L421.03+465.998Z" fill="#efefef" opacity="1" />
            <path d="M440.02+466.447C437.65+466.447+435.557+465.923+433.742+464.873C431.927+463.822+430.51+462.368+429.49+460.507C428.47+458.647+427.96+456.533+427.96+454.163C427.96+451.822+428.47+449.745+429.49+447.93C430.51+446.115+431.927+444.698+433.742+443.678C435.557+442.657+437.65+442.147+440.02+442.147C442.39+442.147+444.482+442.657+446.297+443.678C448.112+444.698+449.522+446.115+450.527+447.93C451.532+449.745+452.035+451.822+452.035+454.163C452.035+456.533+451.532+458.647+450.527+460.507C449.522+462.368+448.112+463.822+446.297+464.873C444.482+465.923+442.39+466.447+440.02+466.447ZM440.02+465.457C442.15+465.457+444.04+464.978+445.69+464.017C447.34+463.057+448.645+461.723+449.605+460.012C450.565+458.302+451.045+456.353+451.045+454.163C451.045+452.032+450.565+450.143+449.605+448.493C448.645+446.842+447.34+445.538+445.69+444.577C444.04+443.617+442.15+443.137+440.02+443.137C437.89+443.137+435.992+443.617+434.327+444.577C432.662+445.538+431.35+446.842+430.39+448.493C429.43+450.143+428.95+452.032+428.95+454.163C428.95+456.353+429.43+458.302+430.39+460.012C431.35+461.723+432.662+463.057+434.327+464.017C435.992+464.978+437.89+465.457+440.02+465.457Z" fill="#efefef" opacity="1" />
            <path d="M467.605+466.447C465.265+466.447+463.195+465.923+461.395+464.873C459.595+463.822+458.185+462.368+457.165+460.507C456.145+458.647+455.635+456.533+455.635+454.163C455.635+451.822+456.145+449.745+457.165+447.93C458.185+446.115+459.595+444.698+461.395+443.678C463.195+442.657+465.265+442.147+467.605+442.147C469.495+442.147+471.205+442.5+472.735+443.205C474.265+443.91+475.555+444.862+476.605+446.062L475.885+446.827C475.225+446.047+474.467+445.388+473.612+444.848C472.757+444.307+471.827+443.888+470.822+443.587C469.817+443.287+468.745+443.137+467.605+443.137C465.475+443.137+463.592+443.61+461.957+444.555C460.322+445.5+459.032+446.797+458.087+448.447C457.142+450.098+456.655+452.002+456.625+454.163C456.655+456.353+457.142+458.302+458.087+460.012C459.032+461.723+460.322+463.057+461.957+464.017C463.592+464.978+465.475+465.457+467.605+465.457C468.715+465.457+469.765+465.315+470.755+465.03C471.745+464.745+472.667+464.325+473.522+463.77C474.377+463.215+475.135+462.563+475.795+461.812L476.515+462.533C475.435+463.733+474.145+464.685+472.645+465.39C471.145+466.095+469.465+466.447+467.605+466.447Z" opacity="1" fill="#efefef" />
            <path d="M481.285+457.942L481.285+456.502L495.55+442.373L496.99+442.373L481.285+457.942ZM480.655+465.998L480.655+432.697L481.645+432.697L481.645+465.998L480.655+465.998ZM497.125+465.998L485.74+452.903L486.505+452.183L498.52+465.998L497.125+465.998Z" opacity="1" fill="#efefef" />
        </g>
        <g opacity="1">
            <path opacity="1" fill="#efefef" d="M433.145+56.6777L433.145+39.1777L436.895+39.1777L436.895+53.3027L444.82+53.3027L444.82+56.6777L433.145+56.6777Z" />
            <path fill="#efefef" opacity="1" d="M448.085+56.6777L448.085+43.4527L451.635+43.4527L451.635+56.6777L448.085+56.6777ZM449.835+40.7527C449.151+40.7527+448.618+40.5819+448.235+40.2402C447.851+39.8986+447.66+39.4194+447.66+38.8027C447.66+38.2361+447.856+37.7736+448.247+37.4152C448.639+37.0569+449.168+36.8777+449.835+36.8777C450.518+36.8777+451.051+37.0486+451.435+37.3902C451.818+37.7319+452.01+38.2027+452.01+38.8027C452.01+39.3694+451.814+39.8361+451.422+40.2027C451.031+40.5694+450.501+40.7527+449.835+40.7527Z" />
            <path opacity="1" fill="#efefef" d="M461.46+62.4277C460.41+62.4277+459.377+62.2736+458.36+61.9652C457.343+61.6569+456.51+61.2527+455.86+60.7527L457.135+58.2277C457.468+58.4611+457.852+58.6694+458.285+58.8527C458.718+59.0361+459.172+59.1777+459.647+59.2777C460.122+59.3777+460.61+59.4277+461.11+59.4277C461.977+59.4277+462.689+59.2944+463.247+59.0277C463.806+58.7611+464.227+58.3611+464.51+57.8277C464.793+57.2944+464.935+56.6277+464.935+55.8277L464.935+53.5277L465.535+53.6527C465.435+54.2027+465.156+54.7069+464.697+55.1652C464.239+55.6236+463.672+55.9902+462.997+56.2652C462.322+56.5402+461.618+56.6777+460.885+56.6777C459.668+56.6777+458.585+56.3944+457.635+55.8277C456.685+55.2611+455.935+54.4777+455.385+53.4777C454.835+52.4777+454.56+51.3194+454.56+50.0027C454.56+48.6861+454.831+47.5152+455.372+46.4902C455.914+45.4652+456.656+44.6569+457.597+44.0652C458.539+43.4736+459.61+43.1777+460.81+43.1777C461.31+43.1777+461.789+43.2361+462.247+43.3527C462.706+43.4694+463.131+43.6319+463.522+43.8402C463.914+44.0486+464.264+44.2819+464.572+44.5402C464.881+44.7986+465.135+45.0777+465.335+45.3777C465.535+45.6777+465.66+45.9777+465.71+46.2777L464.985+46.4777L465.085+43.4527L468.485+43.4527L468.485+55.6777C468.485+56.7611+468.327+57.7194+468.01+58.5527C467.693+59.3861+467.231+60.0902+466.622+60.6652C466.014+61.2402+465.272+61.6777+464.397+61.9777C463.522+62.2777+462.543+62.4277+461.46+62.4277ZM461.56+53.8277C462.26+53.8277+462.872+53.6694+463.397+53.3527C463.922+53.0361+464.327+52.5944+464.61+52.0277C464.893+51.4611+465.035+50.7944+465.035+50.0277C465.035+49.2777+464.893+48.6152+464.61+48.0402C464.327+47.4652+463.922+47.0194+463.397+46.7027C462.872+46.3861+462.26+46.2277+461.56+46.2277C460.877+46.2277+460.277+46.3902+459.76+46.7152C459.243+47.0402+458.839+47.4902+458.547+48.0652C458.256+48.6402+458.11+49.2944+458.11+50.0277C458.11+50.7777+458.256+51.4402+458.547+52.0152C458.839+52.5902+459.243+53.0361+459.76+53.3527C460.277+53.6694+460.877+53.8277+461.56+53.8277Z" />
            <path fill="#efefef" d="M472+56.6777L472+38.1777L475.5+38.1777L475.5+46.1527L474.8+46.4527C474.983+45.8527+475.313+45.3069+475.788+44.8152C476.263+44.3236+476.833+43.9277+477.5+43.6277C478.167+43.3277+478.867+43.1777+479.6+43.1777C480.6+43.1777+481.438+43.3777+482.113+43.7777C482.788+44.1777+483.296+44.7819+483.638+45.5902C483.979+46.3986+484.15+47.3944+484.15+48.5777L484.15+56.6777L480.6+56.6777L480.6+48.8527C480.6+48.2527+480.517+47.7527+480.35+47.3527C480.183+46.9527+479.929+46.6611+479.588+46.4777C479.246+46.2944+478.825+46.2111+478.325+46.2277C477.925+46.2277+477.554+46.2902+477.213+46.4152C476.871+46.5402+476.579+46.7194+476.338+46.9527C476.096+47.1861+475.904+47.4527+475.763+47.7527C475.621+48.0527+475.55+48.3777+475.55+48.7277L475.55+56.6777L473.8+56.6777C473.417+56.6777+473.075+56.6777+472.775+56.6777C472.475+56.6777+472.217+56.6777+472+56.6777Z" opacity="1" />
            <path d="M488.831+56.6777L488.831+40.1027L492.381+40.1027L492.381+56.6777L488.831+56.6777ZM486.356+46.6277L486.356+43.4527L495.106+43.4527L495.106+46.6277L486.356+46.6277Z" fill="#efefef" opacity="1" />
            <path d="M497.399+62.1777L497.399+43.4527L500.824+43.4527L500.924+46.4277L500.274+46.2027C500.39+45.6694+500.678+45.1777+501.136+44.7277C501.595+44.2777+502.165+43.9111+502.849+43.6277C503.532+43.3444+504.249+43.2027+504.999+43.2027C506.149+43.2027+507.174+43.4986+508.074+44.0902C508.974+44.6819+509.682+45.4902+510.199+46.5152C510.715+47.5402+510.974+48.7194+510.974+50.0527C510.974+51.3694+510.715+52.5444+510.199+53.5777C509.682+54.6111+508.974+55.4236+508.074+56.0152C507.174+56.6069+506.149+56.9027+504.999+56.9027C504.232+56.9027+503.503+56.7569+502.811+56.4652C502.12+56.1736+501.536+55.7861+501.061+55.3027C500.586+54.8194+500.282+54.3027+500.149+53.7527L500.974+53.4027L500.974+62.1777L497.399+62.1777ZM504.199+53.8527C504.849+53.8527+505.424+53.6944+505.924+53.3777C506.424+53.0611+506.815+52.6152+507.099+52.0402C507.382+51.4652+507.524+50.8027+507.524+50.0527C507.524+49.3027+507.382+48.6444+507.099+48.0777C506.815+47.5111+506.428+47.0694+505.936+46.7527C505.445+46.4361+504.865+46.2777+504.199+46.2777C503.532+46.2777+502.949+46.4319+502.449+46.7402C501.949+47.0486+501.557+47.4902+501.274+48.0652C500.99+48.6402+500.849+49.3027+500.849+50.0527C500.849+50.8027+500.99+51.4652+501.274+52.0402C501.557+52.6152+501.949+53.0611+502.449+53.3777C502.949+53.6944+503.532+53.8527+504.199+53.8527Z" fill="#efefef" opacity="1" />
            <path d="M518.591+56.9277C517.491+56.9277+516.499+56.6277+515.616+56.0277C514.732+55.4277+514.032+54.6111+513.516+53.5777C512.999+52.5444+512.741+51.3611+512.741+50.0277C512.741+48.6944+513.003+47.5111+513.528+46.4777C514.053+45.4444+514.766+44.6361+515.666+44.0527C516.566+43.4694+517.591+43.1777+518.741+43.1777C519.391+43.1777+519.986+43.2736+520.528+43.4652C521.07+43.6569+521.545+43.9194+521.953+44.2527C522.361+44.5861+522.707+44.9694+522.991+45.4027C523.274+45.8361+523.474+46.3027+523.591+46.8027L522.841+46.6777L522.841+43.4527L526.366+43.4527L526.366+56.6777L522.791+56.6777L522.791+53.5027L523.591+53.4277C523.457+53.8944+523.241+54.3361+522.941+54.7527C522.641+55.1694+522.27+55.5402+521.828+55.8652C521.386+56.1902+520.891+56.4486+520.341+56.6402C519.791+56.8319+519.207+56.9277+518.591+56.9277ZM519.566+53.8527C520.232+53.8527+520.816+53.6944+521.316+53.3777C521.816+53.0611+522.203+52.6152+522.478+52.0402C522.753+51.4652+522.891+50.7944+522.891+50.0277C522.891+49.2777+522.753+48.6194+522.478+48.0527C522.203+47.4861+521.816+47.0402+521.316+46.7152C520.816+46.3902+520.232+46.2277+519.566+46.2277C518.916+46.2277+518.345+46.3902+517.853+46.7152C517.361+47.0402+516.974+47.4861+516.691+48.0527C516.407+48.6194+516.266+49.2777+516.266+50.0277C516.266+50.7944+516.407+51.4652+516.691+52.0402C516.974+52.6152+517.361+53.0611+517.853+53.3777C518.345+53.6944+518.916+53.8527+519.566+53.8527Z" fill="#efefef" opacity="1" />
            <path fill="#efefef" opacity="1" d="M529.913+62.1777L529.913+43.4527L533.338+43.4527L533.438+46.4277L532.788+46.2027C532.904+45.6694+533.192+45.1777+533.65+44.7277C534.109+44.2777+534.679+43.9111+535.363+43.6277C536.046+43.3444+536.763+43.2027+537.513+43.2027C538.663+43.2027+539.688+43.4986+540.588+44.0902C541.488+44.6819+542.196+45.4902+542.713+46.5152C543.229+47.5402+543.488+48.7194+543.488+50.0527C543.488+51.3694+543.229+52.5444+542.713+53.5777C542.196+54.6111+541.488+55.4236+540.588+56.0152C539.688+56.6069+538.663+56.9027+537.513+56.9027C536.746+56.9027+536.017+56.7569+535.325+56.4652C534.634+56.1736+534.05+55.7861+533.575+55.3027C533.1+54.8194+532.796+54.3027+532.663+53.7527L533.488+53.4027L533.488+62.1777L529.913+62.1777ZM536.713+53.8527C537.363+53.8527+537.938+53.6944+538.438+53.3777C538.938+53.0611+539.329+52.6152+539.613+52.0402C539.896+51.4652+540.038+50.8027+540.038+50.0527C540.038+49.3027+539.896+48.6444+539.613+48.0777C539.329+47.5111+538.942+47.0694+538.45+46.7527C537.959+46.4361+537.379+46.2777+536.713+46.2777C536.046+46.2777+535.463+46.4319+534.963+46.7402C534.463+47.0486+534.071+47.4902+533.788+48.0652C533.504+48.6402+533.363+49.3027+533.363+50.0527C533.363+50.8027+533.504+51.4652+533.788+52.0402C534.071+52.6152+534.463+53.0611+534.963+53.3777C535.463+53.6944+536.046+53.8527+536.713+53.8527Z" />
            <path opacity="1" d="M552.429+56.9277C550.996+56.9277+549.742+56.6361+548.667+56.0527C547.592+55.4694+546.759+54.6694+546.167+53.6527C545.575+52.6361+545.279+51.4694+545.279+50.1527C545.279+49.1194+545.446+48.1777+545.779+47.3277C546.113+46.4777+546.579+45.7402+547.179+45.1152C547.779+44.4902+548.492+44.0069+549.317+43.6652C550.142+43.3236+551.038+43.1527+552.004+43.1527C552.904+43.1527+553.738+43.3194+554.504+43.6527C555.271+43.9861+555.934+44.4486+556.492+45.0402C557.05+45.6319+557.479+46.3319+557.779+47.1402C558.079+47.9486+558.213+48.8194+558.179+49.7527L558.154+50.8527L547.529+50.8527L546.954+48.6777L555.229+48.6777L554.829+49.1277L554.829+48.5777C554.796+48.1277+554.65+47.7236+554.392+47.3652C554.134+47.0069+553.804+46.7236+553.404+46.5152C553.004+46.3069+552.554+46.2027+552.054+46.2027C551.321+46.2027+550.7+46.3444+550.192+46.6277C549.684+46.9111+549.296+47.3277+549.029+47.8777C548.763+48.4277+548.629+49.0944+548.629+49.8777C548.629+50.6777+548.8+51.3694+549.142+51.9527C549.484+52.5361+549.967+52.9902+550.592+53.3152C551.217+53.6402+551.954+53.8027+552.804+53.8027C553.388+53.8027+553.921+53.7111+554.404+53.5277C554.888+53.3444+555.404+53.0277+555.954+52.5777L557.654+54.9527C557.171+55.3861+556.638+55.7486+556.054+56.0402C555.471+56.3319+554.871+56.5527+554.254+56.7027C553.638+56.8527+553.029+56.9277+552.429+56.9277Z" fill="#efefef" />
            <path opacity="1" fill="#efefef" d="M560.804+56.6777L560.804+43.4527L564.229+43.4527L564.354+47.7027L563.754+46.8277C563.954+46.1444+564.279+45.5236+564.729+44.9652C565.179+44.4069+565.709+43.9694+566.317+43.6527C566.925+43.3361+567.563+43.1777+568.229+43.1777C568.513+43.1777+568.788+43.2027+569.054+43.2527C569.321+43.3027+569.546+43.3611+569.729+43.4277L568.779+47.3277C568.596+47.2277+568.359+47.1402+568.067+47.0652C567.775+46.9902+567.479+46.9527+567.179+46.9527C566.779+46.9527+566.409+47.0236+566.067+47.1652C565.725+47.3069+565.429+47.5069+565.179+47.7652C564.929+48.0236+564.734+48.3277+564.592+48.6777C564.45+49.0277+564.379+49.4111+564.379+49.8277L564.379+56.6777L560.804+56.6777Z" />
        </g>
    </g>
</svg>